<svg width="512" height="512" xmlns="http://www.w3.org/2000/svg"><defs><linearGradient x1="113.724%" y1="113.35%" x2="1.393%" y2="1.389%" id="a"><stop stop-color="#D9185B" offset="0%"/><stop stop-color="#F1534F" offset="100%"/></linearGradient><filter x="-55.2%" y="-55.4%" width="210.5%" height="210.9%" filterUnits="objectBoundingBox" id="b"><feOffset dy="30" in="SourceAlpha" result="shadowOffsetOuter1"/><feGaussianBlur stdDeviation="20" in="shadowOffsetOuter1" result="shadowBlurOuter1"/><feColorMatrix values="0 0 0 0 1 0 0 0 0 1 0 0 0 0 1 0 0 0 0.148562131 0" in="shadowBlurOuter1" result="shadowMatrixOuter1"/><feMerge><feMergeNode in="shadowMatrixOuter1"/><feMergeNode in="SourceGraphic"/></feMerge></filter></defs><g fill="none" fill-rule="evenodd"><path d="M165.375 50h181.25c40.119 0 54.666 4.177 69.333 12.021 14.667 7.844 26.177 19.354 34.021 34.02C457.823 110.71 462 125.257 462 165.376v181.25c0 40.119-4.177 54.666-12.021 69.333-7.844 14.667-19.354 26.177-34.02 34.021C401.29 457.823 386.743 462 346.624 462h-181.25c-40.119 0-54.666-4.177-69.333-12.021-14.667-7.844-26.177-19.354-34.021-34.02C54.177 401.29 50 386.743 50 346.624v-181.25c0-40.119 4.177-54.666 12.021-69.333 7.844-14.667 19.354-26.177 34.02-34.021C110.71 54.177 125.257 50 165.376 50z" fill="url(#a)"/><path d="M69 447h382V65H69z"/><g filter="url(#b)" opacity=".953" transform="translate(147 132)" fill="#FFF" fill-rule="nonzero"><path d="M40.893 0c.245 0 .482 0 .727.008v.009l.001.003.214.005.138.003-.006-.011c.27.008.55.017.82.034l.001.002.172.007.175.01-.002-.002c.154.01.311.017.468.027l-.002-.002c.295.017.6.042.904.067l.002.004.11.009.106.008-.006-.012c.33.025.66.059.989.093l.008.008.001.002.077.008.15.015.054.006.26.028V.33l.148.017.092.01-.004-.003c.33.043.66.085.998.127l.007.011.103.014.141.02-.006-.011c.305.042.618.084.922.135l.001.001.168.025.465.075.006.01.121.02.125.022-.006-.01c.296.05.591.101.887.16h.009l.003.006.15.028.245.046V1.03l.41.077.414.082h.004l-.001.001.192.039c.15.03.3.062.452.096l.001.002.202.041.195.043-.001-.002c.28.06.558.127.837.186h.009l.003.006.415.095-.004-.008c.304.067.609.143.913.22v.008l.002.003.214.052.214.055-.007-.01c.288.077.575.144.863.229l.002.004.24.064.155.043v-.002l.289.079-.002-.003.004.004.19.052.207.059-.003-.005.544.157-.003-.005c.347.101.693.202 1.049.304v.008l.008.015.103.032.165.05-.006-.012c.102.033.203.059.296.092l.136.036v-.002l.001.002.268.07-.007-.013c.363.093.727.194 1.09.287v.009l.263.069v-.002l.212.057.134.036-.003-.001.172.046c.172.046.343.09.516.132h-.008v.001l.122.033c.182.048.364.097.546.143l.003.006.122.032.526.14.003.006.098.026.199.051-.004-.008.998.262.001.003.531.14.003.005.682.181.002.004.607.165v-.009l.005.01.421.114-.003-.005.261.068h.001l.435.115-.004-.006.93.245-.008.008.008.015.426.114-.011-.02.611.166-.003-.005.686.187v-.001l.635.172-.001-.004.98.262v.003l.618.166-.006.004.665.181.006.01.248.067.431.118v-.009l.005.009.271.074-.014-.024.626.169c.144.042.288.084.423.127v.008l.003.007.124.036.153.047-.01-.014c.373.11.745.22 1.117.346l.003.005.132.042.152.05-.008-.013c.363.118.718.237 1.082.355l-.004.003.106.036c.183.062.367.125.55.189l-.001.006.177.061.146.052-.002-.001.205.072.201.071v.001l.165.06c.19.068.38.137.571.21l.008.013.051.02.195.073-.009-.014c.247.095.498.185.747.28l-.003-.001c.246.092.488.188.732.286l-.004-.008c.346.135.693.278 1.04.422v.001l.187.076.196.08-.003-.005c.262.108.52.217.78.329h-.002l.261.109h.001v.001l.254.106.516.223.004.007.246.108.241.105c.329.143.667.294.997.446l.002.005.243.11.197.092-.002-.004c.372.169.752.346 1.124.523l.002.003.218.104.24.114-.012-.018c.364.177.728.354 1.1.54h-.009l.003.003.133.065.169.083.12.06.353.177.002.003.173.087.149.076-.002-.006.823.419-.003-.005.309.16.215.11-.005-.001.116.06.642.337-.001.002.169.088c.227.121.453.244.677.366l.005.008.152.082.672.366-.01-.001.158.086.16.089-.004-.005c.415.227.837.464 1.252.7l.008.008.004.007.203.117.673.391v-.008l.01.017.176.102.18.105-.003-.005.475.281-.001-.002.007.006.204.121.208.124-.005-.007.482.288.093.055c.192.115.385.231.575.35l.004.006.288.176.615.382.01.006-.004-.005.007.007.255.158.264.164h-.001l.346.218v-.007l.008.012.288.183.294.188-.006-.012c.406.253.803.515 1.209.776h-.009l.008.013.276.181c.217.144.435.287.655.43h.008l.008.014.553.368-.01-.018c.328.223.657.445.985.672l-.013-.023c.422.287.845.583 1.268.878l-.009.009.004.005.266.186c.244.173.487.349.728.526v-.009l.009.016.228.163c.237.17.474.34.71.513l.002.004.264.191.28.208-.004-.006.48.354h.001l.001.001.24.178.167.125-.01-.017c.541.405 1.074.81 1.615 1.224v.008l.001.004.184.14.83.65.223.175.864.693.18.145c.284.23.568.46.847.691v-.008l.01.017.263.216.177.146-.02-.033c.601.498 1.202 1.004 1.802 1.519h-.008l.011.02.157.133.306.263-.018-.028c.584.506 1.159 1.012 1.734 1.527h-.005l.359.322.889.809.007.014.266.244c.308.284.615.569.919.856l.025.042.243.229.398.378-.007-.008.516.497v-.007l.011.018.38.367c.159.154.316.308.473.463l-.01-.013.346.345.086.085v.002l.202.201c.228.228.454.457.68.686l-.003-.002.165.168.41.422.002.003.096.1c.249.257.496.515.741.775l-.01-.017c.548.578 1.093 1.165 1.63 1.757l-.024-.036c.795.87 1.573 1.756 2.326 2.642l.015.026.298.348c.317.376.63.754.941 1.133l-.02-.03c5.708 6.953 10.308 14.421 13.14 22.109l-.016-.03c.18.488.353.979.519 1.47l.03.053c.219.66.423 1.315.617 1.972v.003l.05.165.154.535-.007-.011.034.121c.15.541.291 1.083.42 1.629l-.005-.01.015.058c.062.26.12.518.178.777l.016.027c.143.658.279 1.308.397 1.966l-.016-.027.028.145c.041.234.08.467.118.7l.005.01c.064.397.124.8.177 1.203l.001.003c.05.36.094.724.135 1.086v.003l.006.05.053.49-.005-.01c.02.21.037.416.054.621l.002.005.018.245.016.202-.001-.003.024.324.02.3v.003l.006.11.019.355-.007-.01.013.292.005.168-.003-.062c.017.506.034 1.012.034 1.519l-.005-.01c0 .126-.002.252-.004.378V85.036l-.008.506-.002-.004-.003.191a79.24 79.24 0 01-.004.159l.01.017c-.018.481-.043.962-.077 1.443l-.007-.01-.007.121-.007.116.004.01-.023.268c-.006.09-.012.18-.02.272l-.004-.007-.01.129-.02.181c-.041.422-.084.836-.134 1.258l-.013-.023c-.015.118-.03.236-.047.354l.009.015c-.031.227-.065.454-.103.68l.001.003c-.037.252-.078.503-.12.754l.002.006-.031.166-.045.264-.006-.008-.012.07-.1.487-.003-.005-.048.238-.046.224.004.007c-.068.295-.127.599-.203.894l-.008-.011-.053.21-.055.206.006.009c-.076.304-.153.607-.237.911l-.003-.003-.056.206-.127.455-.006-.008-.05.169-.105.327.051-.167c-.067.213-.13.42-.194.631v.002l-.008.023-.069.222-.004-.008-.059.18-.052.156.005.01c-.101.286-.21.573-.312.86l-.003-.004-.048.136c-.049.132-.097.265-.144.4l-.004-.008-.064.168c-.052.141-.105.283-.16.422l-.007-.011-.009.022-.078.18v.003c-.078.188-.16.376-.24.566l.004.008c-.118.278-.228.565-.355.844v.008l-.003-.004-.125.269c-.043.09-.088.178-.134.267l-.094.184v.001c-.143.279-.287.557-.439.827l-.003-.005-.037.068c-.072.123-.146.245-.222.368l-.002-.003-.071.12-.037.06-.046.074-.14.221-.002-.001-.041.067c-.078.118-.156.234-.236.348l-.003-.004-.07.104-.066.095.004.007a44.05 44.05 0 01-.313.43l-.023.032-.13.171-.002-.003-.05.067c-.068.088-.138.177-.21.265l-.005-.008-.1.126-.099.124.001.003-.088.105-.038.047-.002-.003-.105.124-.24.267-.004-.005-.086.097a7.55 7.55 0 01-.13.142v.002c-.144.16-.296.313-.457.465l-.002-.004-.104.108a13.29 13.29 0 01-.1.099l.004.007c-.17.16-.339.33-.508.481l-.005-.008-.105.096c-.045.041-.09.082-.137.122l.002.001c-.111.1-.222.195-.333.288l.003.008c-.169.143-.347.287-.524.43l-.007-.01-.111.09-.116.089.006.008c-.17.135-.347.262-.525.389l-.007-.013-.14.1-.016.01.003.004c-.22.152-.432.295-.66.439l-.001-.002-.08.054-.066.042.003.007c-.211.135-.422.262-.634.388l-.002-.004-.125.075-.321.182-.003-.004-.07.04-.082.045.003.004c-.237.126-.474.253-.71.37l.279-.143c-.146.079-.296.153-.444.224l.004.004c-.22.11-.44.211-.66.313l-.002-.005-.1.046-.354.153.27-.119c-.155.07-.307.136-.46.199l.004.004c-.195.084-.398.16-.592.228l-.002-.002-.168.064-.127.046v.002c-.155.055-.315.111-.476.164l.003.004c-.22.076-.448.144-.668.211l-.001-.001-.121.038-.309.09-.003-.005-.178.05c-.104.029-.208.056-.31.081l-.002-.003-.154.04c-.052.014-.105.026-.158.039h.002l-.132.03-.054.013-.001-.002-.157.035-.155.034-.195.042-.001-.002-.13.027c-.075.015-.15.03-.225.043l.035-.009c-.22.043-.44.085-.66.119l-.004-.007-.14.022-.163.023.003.004-.376.05-.157.017-.014.003-.206.023-.001-.003-.135.014a12.9 12.9 0 01-.362.03l-.002-.002-.121.01-.082.006.002.004-.562.03.003.003c-.304.009-.608.017-.913.009v-.002h-.075a19.587 19.587 0 01-.432-.007l-.011-.017a16.869 16.869 0 01-.229-.01l.012.019a18.334 18.334 0 01-1.59-.152l-.005-.007-.067-.008a16.973 16.973 0 01-.169-.024l.004.005c-.313-.05-.634-.101-.938-.169l-.007-.01-.145-.03a20.92 20.92 0 01-.508-.12l-.009-.014-.083-.02a37.288 37.288 0 01-.205-.056l.01.014a15.79 15.79 0 01-.708-.22l.006.01a15.42 15.42 0 01-.939-.355l.296.118c-.264-.1-.529-.215-.786-.333l.008.012c-.267-.124-.53-.253-.79-.392l.004.004-.201-.112a10.43 10.43 0 01-.13-.074l-.002-.003-.093-.053a14.35 14.35 0 01-.826-.526l-.006-.01c-.178-.124-.352-.25-.523-.383l.005.005-.076-.06a10.808 10.808 0 01-.162-.13l.238.19a12.223 12.223 0 01-1.229-1.097h.003l-.047-.045a12.74 12.74 0 01-.528-.58l-.013-.019c-1.017-1.2-1.83-2.64-2.372-4.326l.01.015a14.77 14.77 0 01-.441-1.72l.013.027a16.27 16.27 0 01-.12-.699l-.011-.02-.065-.483-.003-.006.002-.001-.005-.039c-.026-.222-.05-.447-.068-.675l-.005-.011a21.91 21.91 0 01-.052-.925l-.008-.471.005.008-.001-.109c0-.142 0-.286.002-.43l.001-.065-.015-.025c.006-.268.016-.541.03-.815l-.004-.012c.016-.388.05-.785.093-1.19v.009l.006.01.024-.235.015-.131-.003-.007c.042-.388.101-.785.16-1.182v-.008c.021-.11.04-.227.06-.344v-.002l.04-.229.019-.109v.001l.003-.014.049-.262-.001-.003c.067-.371.152-.751.236-1.13l.005.007.031-.14.034-.142-.002-.004c.085-.346.17-.684.262-1.038v.008c.024-.078.046-.16.07-.241l-.002-.004c.067-.261.135-.514.22-.784.025-.085.05-.17.076-.253v.008l.003.006.06-.189.016-.055-.003-.007.188-.631-.01-.019c.084-.295.169-.599.253-.902l.009.008.005.008.045-.168.127-.473v-.008l.002.003.053-.206.041-.163-.003-.006.078-.318-.002-.002.002.001.031-.128.055-.239-.003-.006.044-.2-.002-.002.002-.001.057-.252.094-.419-.051.241c.05-.24.1-.48.148-.72l-.005-.005c.068-.33.127-.658.186-.988v.009l.005.007.038-.214.042-.243-.009-.014.137-.899.048-.35c.025-.184.048-.367.07-.549l-.035.296c.043-.363.085-.726.119-1.089v.009l.004.008.024-.24c.016-.18.03-.36.048-.536l.002.004.025-.31.006-.087-.008-.012c.023-.304.038-.608.05-.914l.018-.454c.01-.295.017-.592.017-.886l.008.014.003-.39-.003-.003c0-.295-.003-.59-.01-.885l-.007-.01a38.705 38.705 0 00-.084-1.713l-.028-.352-.006-.01a33.36 33.36 0 00-.203-1.823h.008l.025.042-.005-.05c-.02-.146-.04-.291-.062-.436l-.034-.054a35.892 35.892 0 00-.422-2.279 26.26 26.26 0 00-.381-1.56l.008.008.007.008c-.06-.22-.121-.44-.184-.66l-.21-.708a34.856 34.856 0 00-.676-1.953l-.234-.605-.004-.004-.026-.045h.008l-.136-.337a35.973 35.973 0 00-.657-1.487l-.035-.057c-.99-2.11-2.224-4.194-3.72-6.262l-.048-.082c-.415-.571-.85-1.14-1.305-1.708l.025.043a48.18 48.18 0 00-2.58-2.962l-.009-.019c-.113-.12-.227-.24-.343-.36l-.223-.228c-.423-.434-.86-.867-1.311-1.3l.01.017a55.076 55.076 0 00-2.039-1.865 22.879 22.879 0 00-.47-.41l.014.022a79.725 79.725 0 00-1.75-1.443l-.014-.023-.344-.272.02.033a74.97 74.97 0 00-2.648-1.983l-.008-.013-.018-.012-.59-.422c.438.443.853.882 1.256 1.318l-.327-.348c.947 1 1.81 1.977 2.583 2.94.039.052.08.102.12.153.036.043.07.087.105.131h.008l.034.055c.367.466.714.928 1.041 1.386l-.043-.074a29.687 29.687 0 012.073 3.3l.096.18.093.178c.395.759.736 1.507 1.026 2.247l.001.002.032.082.107.28-.139-.362a22.252 22.252 0 01.289.781c.268.771.483 1.533.641 2.29l-.009-.018c.067.307.126.614.174.92l-.063-.361c.073.4.131.799.177 1.196v.002l.007.058c.02.178.037.356.052.533.026.35.046.704.051 1.055l-.01-.02c.003.161.003.322.001.48v.004c-.005.287-.016.57-.034.85l.001.002-.014.186-.011.135.025-.32c-.018.267-.041.53-.068.796v.005l-.012.104a27.2 27.2 0 01-.022.2l-.004-.008-.031.248-.034.234.002.007c-.04.255-.084.506-.13.755l.003.004-.034.168-.008.043-.002-.001-.051.257c-.034.155-.07.31-.108.461l-.004-.007-.045.185-.06.233v.003c-.055.205-.11.411-.17.62v.004c-.085.27-.17.549-.262.819l-.004-.006-.07.213-.037.103.001.002-.052.14a22.17 22.17 0 01-.058.155l-.001-.002-.047.126-.163.425-.003-.004-.066.173-.05.128v.007l-.085.2-.033.078-.002-.002-.05.116-.12.268.079-.18c-.127.288-.245.566-.38.853l-.005-.006-.039.086-.058.121v.002c-.135.278-.262.548-.406.827l-.005-.008-.038.075-.062.119.004.008c-.136.261-.28.523-.423.784l-.002-.002-.045.083-.215.392-.008-.014-.061.107a28.52 28.52 0 01-.332.566l.003.008c-.135.227-.279.455-.423.683l-.001-.002-.062.1a33.76 33.76 0 00-.216.35l-.002-.004-.058.092-.087.134.004.005c-.12.188-.247.375-.375.562l.07-.106c-.09.137-.184.28-.28.42l.001.002c-.135.202-.27.396-.406.599l-.005-.01-.106.153-.088.126.005.01c-.144.202-.288.413-.432.615l-.005-.008-.08.114-.086.118.002.004c-.103.148-.211.292-.32.437v.002l-.297.403v.002c-.093.127-.19.256-.289.385l.002.003-.449.6-.003-.006-.167.223.001.002-.034.042-.101.135-.002-.003-.095.122c-.078.1-.157.202-.233.303l-.003-.005-.065.085c-.088.114-.177.228-.27.342l.211-.27c-.169.21-.33.43-.507.641l.203-.253c-.17.211-.347.43-.516.65v-.002l-.069.087c-.085.109-.172.219-.26.328l-.004-.005-.061.077-.06.075.006.014c-.17.21-.338.422-.516.633l-.004-.008-.052.064-.073.089.002.007c-.103.13-.206.257-.312.385v.003c-.17.202-.339.413-.508.616l-.002-.004-.135.163.002.001-.104.123-.065.08-.001-.002-.054.066-.108.131.002.007c-.144.177-.296.355-.448.532l-.004-.007-.11.133-.101.12.004.007a24.05 24.05 0 01-.44.523l.135-.16c-.152.177-.296.354-.448.531l-.003-.003-.344.408.127-.151c-.152.185-.313.37-.465.557l-.001-.002-.089.107-.089.104.001.001-.465.557v-.001l-.32.381-.003-.003-.336.4-.003-.004-.151.178.002.003-.5.59-.002-.003-.052.063-.056.065v.002l-.339.402.002.003-.516.616-.002-.001-.062.073-.065.077.002.003-.45.535.129-.155c-.178.22-.364.439-.55.65l-.096.113.003.005c-.112.133-.227.267-.34.403l.002.002c-.17.194-.33.397-.5.6l-.002-.004-.074.092-.09.106.006-.01c-.102.126-.204.248-.306.37l.002.002c-.11.134-.22.268-.332.401l.002.004-.44.54-.002-.004-.109.135c-.077.095-.155.19-.235.283l-.002-.003-.087.108-.216.266-.001-.002-.113.141-.09.111.001.003c-.144.177-.296.363-.44.549l-.001-.002-.1.124-.103.128.002.003-.432.531-.003-.006-.118.15-.058.074.002.002-.308.39.003.006c-.16.203-.321.406-.482.616l-.003-.004-.072.093c-.075.097-.149.194-.22.291l-.004-.005-.077.1-.048.063.002.003-.305.395v.001l-.161.208-.042.054.203-.262c-.111.143-.222.285-.331.428l.001.003-.499.65v-.002l-.32.432-.006-.009-.054.073-.046.062.004.009c-.178.228-.347.464-.525.7v-.001l-.025.035-.093.126c-.152.211-.304.422-.457.625v-.002l-.076.103-.062.086.003.007c-.144.203-.287.405-.44.608l-.004-.008-.08.114-.203.29-.003-.003-.107.152-.085.12v.001l-.056.08-.062.089V103l-.089.125-.09.128.001.002-.308.44.004.007-.397.583-.004-.007-.31.454-.002-.004-.09.135c-.068.099-.136.198-.203.3l.118-.178c-.104.153-.204.307-.306.46l.002.004-.275.417.004.005c-.135.211-.279.422-.414.633l-.005-.006-.074.116c-.071.11-.141.22-.209.329l-.009-.015-.08.129-.035.054.006.01c-.1.153-.199.311-.298.468l.002.004c-.091.141-.182.282-.273.426-.14.223-.288.458-.43.687l.136-.227c-.152.253-.304.506-.456.75l-.004-.005-.118.194.003.006-.44.734-.001-.002-.048.082c-.075.129-.149.258-.22.384l-.263.456-.003-.006-.052.09-.083.14.003.004c-.136.236-.27.472-.406.717l-.002-.003-.032.058-.094.17.001.003c-.09.155-.176.315-.263.476v.005c-.117.22-.236.43-.354.65l-.004-.006-.098.183-.07.13.003.005c-.104.198-.207.403-.315.603l.044-.088c-.118.227-.237.455-.355.691l-.006-.009-.09.17-.082.16c-.075.157-.155.313-.233.467l.005.006c-.09.18-.175.359-.263.538v.002c-.118.236-.236.472-.346.709l-.005-.01-.075.154-.066.136.002.007c-.118.244-.228.497-.346.742l-.005-.007-.063.138-.03.065.005.007c-.136.287-.27.573-.398.86l.153-.337c-.136.295-.271.599-.398.894l-.002-.003-.04.096-.027.063.001.005-.246.573h.001c-.127.296-.253.591-.38.895l.143-.354-.228.563v.002l-.212.53v.002c-.077.188-.154.38-.23.572l.002.001c-.118.296-.228.591-.338.886l-.003-.005-.05.137c-.057.155-.112.312-.167.468l-.006-.011-.023.065-.058.161.003.004-.151.4-.07.19c-.066.194-.137.392-.206.588l.004.003c-.101.287-.194.574-.288.853l-.003-.006-.056.166-.052.157.002.003c-.07.208-.14.416-.205.623l.002.002c-.066.202-.127.404-.187.606v.001l-.03.098-.046.156-.001-.002-.118.388.001.002-.185.599-.12.417-.05.174-.254.936-.003-.006-.102.373.004.005c-.076.303-.16.599-.237.903l-.001-.003-.033.138-.029.12.004.006c-.093.363-.178.726-.262 1.089l-.008-.013-.018.073a57.76 57.76 0 00-.049.198l.007.012c-.025.093-.042.185-.068.278l-.078.343.002.003c-.084.388-.169.768-.245 1.156l-.008-.014-.029.137-.024.12.002.002c-.052.242-.1.48-.147.72l.003.006-.203 1.071.076-.413a27.96 27.96 0 00-.203 1.165l-.004-.008-.028.164c-.033.192-.065.384-.094.578l.067-.422c-.042.253-.08.506-.12.757l.002.002c-.036.23-.071.46-.104.69l.002.002-.109.781.008.012c-.05.363-.093.718-.135 1.08l-.009-.014-.03.267-.063.558-.001-.003-.023.218-.02.203.002.004c-.03.278-.057.557-.081.836l.005.007-.05.582-.018.237c-.034.405-.06.81-.076 1.207l-.002-.003-.014.242c-.01.189-.018.377-.026.562l-.003-.003-.012.268c-.009.216-.015.432-.02.647l-.003-.006-.008.262a82.31 82.31 0 00-.005.229l.008.013c-.008.455-.016.911-.016 1.358l-.014-.023-.001.166v.23l.006.007c0 .498.009 1.004.025 1.502l-.002-.004.005.189c.008.27.019.54.031.81l-.002-.004.009.219.008.173.01.018c.026.548.06 1.089.102 1.629l-.001-.003.023.301.012.132c.05.624.11 1.24.186 1.856l-.003-.003.026.23.068.55-.04-.32c.051.42.106.838.165 1.254l.004.003c.075.532.161 1.06.25 1.585l-.073-.421c.077.45.154.894.237 1.338l.009.012c.127.661.262 1.315.405 1.96l-.11-.483c.153.684.313 1.367.483 2.034l-.11-.43c2.422 9.745 7.305 18.072 13.932 24.364l.113.099c.194.177.38.354.575.532l-.003.001.121.111c.147.134.294.266.44.397l-.28-.248c.214.189.422.374.633.557l-.049-.042c.22.19.44.377.662.562l.006-.005c.305.253.6.49.914.734l-.002.001.197.155.35.272-.207-.158c.33.253.66.498.99.743h-.002l.167.124.142.102.005-.007c.345.244.69.487 1.043.73l-.316-.215c.322.22.651.447.973.658l-.005.004.209.138.159.104v-.001c.347.228.702.447 1.057.675.066.044.134.086.203.126l.198.118.089.053.22.125-.002.002.181.106.214.124.005-.004c.347.194.693.388 1.048.582l-.001.001.23.124.156.082.004-.005c.372.195.753.389 1.142.583h-.002l.2.1.563.271-.002.001.206.098.228.104.008-.009c.372.169.744.338 1.124.498l-.002.001.243.103.266.112.518.208.218.082.05.022.348.13-.004.003c.145.056.285.108.425.16l.002-.002.255.093.142.05h-.001l.23.083c.21.075.422.149.634.22l-.002.001.218.075c.208.068.418.136.63.203l-.006.006c.144.046.281.088.418.13h.001l.251.076.231.067h-.001l.172.052.241.07.003-.004c.431.126.87.245 1.302.354l-.002.001.028.007.45.114.023.005.089.022.342.08h-.001l.242.057.19.043c.346.08.696.156 1.048.227l-.117-.024c.317.063.64.127.962.188l.001-.002c.49.092.99.177 1.489.253.146.026.296.047.446.069l.002-.002c.31.044.625.087.938.128v-.001c.366.048.732.091 1.1.13l-.026-.004c.351.037.702.07 1.055.1l-.09-.007c.499.04 1.006.08 1.506.112l-.475-.027c.357.023.717.042 1.076.06l.006-.01c.525.026 1.057.042 1.59.05.367.013.742.015 1.116.01l-.007.007h.018c.175 0 .351-.002.528-.004l.002-.004c9.251-.118 19.263-2.573 29.537-7.797 25.655-13.238 46.313-42.604 46.871-75.696l-.009.001.011-.122.006-.468.03-.031c.022-.375.03-.75 0-1.125l.041-.009a8.988 8.988 0 00-.096-1.282v-.009l.095-.018-.003-.099a39.648 39.648 0 00-.007-.142l-.01.006-.016-.37a7.043 7.043 0 00-.101-.5h.05l.022-.004-.014-.282c-.01-.171-.02-.342-.033-.515l.012-.008-.009-.165a50.556 50.556 0 00-.01-.13l-.052.008.053-.01-.028-.395.003-.003-.025-.393-.012.007-.025-.355a6.62 6.62 0 00-.034-.083l.026-.007-.005-.06-.038-.507.006-.004-.021-.259-.002.001-.012-.17-.03-.066v-.008l.022-.005-.019-.232a31.772 31.772 0 00-.014-.155l-.006.003-.077-.797a8.255 8.255 0 00-.008-.013l.005-.001-.021-.227.002-.002-.015-.158c-.02-.18-.038-.359-.055-.54l.004-.004-.01-.099a.023.023 0 00-.003-.007v-.008l-.02-.221-.005.001v-.033a64.798 64.798 0 00-.107-.609l-.003.001c-.05-.287-.101-.557-.152-.835l.001-.002-.007-.044-.112-.638c-.01-.072-.022-.145-.034-.22l-.017-.102v.001l-.14-.942-.063-.4c-.05-.295-.102-.59-.152-.894l.004-.003-.021-.136-.022-.134-.004.003-.177-.987.003-.003-.034-.187c-.01-.06-.022-.12-.033-.179l-.012.006-.186-.954.004-.003-.025-.127-.09-.435h.001l-.034-.169-.03-.145-.004.002-.134-.609-.001.001-.22-.987.002-.003-.036-.153-.037-.16-.005.004-.151-.619-.001.003c-.068-.287-.144-.566-.212-.853l.002-.001-.036-.138-.033-.123c-.055-.213-.11-.427-.168-.64h-.001c-.058-.22-.12-.44-.183-.66l-.004.001c-.084-.304-.169-.607-.262-.911l.005-.004-.043-.148-.044-.153-.002.001c-.05-.175-.106-.35-.16-.525v.002a38.975 38.975 0 00-.288-.928l.11.346c-.102-.313-.195-.625-.296-.937l.093.287a32.876 32.876 0 00-.193-.591h-.002l-.05-.155-.051-.149-.047-.14-.148-.45.102.295-.205-.594-.007.003c-.093-.261-.186-.531-.279-.793l.093.262c-.101-.296-.211-.591-.313-.878l.008-.005-.055-.155-.054-.144-.023-.061-.087-.234.001-.002-.052-.142-.053-.146-.006.003c-.11-.287-.22-.582-.338-.87l.006-.004-.045-.118a36.7 36.7 0 00-.164-.409l.004-.003-.056-.141a84.832 84.832 0 00-.042-.103l-.008.002c-.118-.303-.245-.599-.372-.902l.007-.005-.057-.139-.06-.143c-.08-.194-.16-.384-.242-.575h-.003l-.069-.166a34.263 34.263 0 00-.05-.112l.001-.001-.052-.121-.177-.4.004-.003-.067-.154-.053-.123h-.002c-.127-.278-.254-.565-.38-.843v-.002l-.064-.142a82.345 82.345 0 00-.19-.422l.127.279a54.77 54.77 0 00-.258-.56l-.004.003c-.136-.287-.271-.574-.406-.852l.002-.003-.103-.217c-.136-.278-.271-.557-.407-.827l.005-.003-.065-.132a37.532 37.532 0 00-.069-.137l-.006.002c-.135-.278-.27-.548-.414-.827l.001-.001-.066-.13a37.97 37.97 0 00-.074-.142l-.005.003c-.144-.278-.287-.557-.44-.835l.002-.002-.053-.104-.202-.375.009-.007-.082-.154-.063-.113-.008.004c-.144-.27-.296-.54-.44-.81l.004-.003-.073-.132-.116-.208.041.073c-.102-.183-.209-.369-.314-.553l-.007.004c-.144-.253-.287-.515-.44-.768l.01-.006-.077-.133-.08-.141-.005.002a25.93 25.93 0 00-.283-.484l-.004.003a39.182 39.182 0 00-.474-.794l.003-.002-.084-.141-.073-.121-.007.003c-.169-.279-.346-.566-.524-.844l.01-.007-.048-.077-.075-.122-.005.003a36.259 36.259 0 00-.474-.742l.008-.006-.076-.12-.253-.389v-.001l-.086-.134-.083-.127-.065-.102a15.063 15.063 0 00-.113-.168h.001l-.082-.126a36.995 36.995 0 00-.265-.397l.003-.002-.071-.107-.12-.182-.007.004c-.152-.22-.296-.447-.448-.666l.006-.005-.1-.147a56.259 56.259 0 00-.071-.103l-.004.001c-.178-.253-.347-.506-.524-.759l.001-.001-.1-.146-.093-.134-.003.003c-.186-.262-.372-.524-.566-.794l.002-.002-.063-.087c-.083-.115-.168-.231-.252-.35l.003-.002-.072-.103c-.086-.12-.172-.24-.261-.359l.177.245c-.177-.253-.363-.498-.55-.743l.002-.001-.382-.513.002-.002-.107-.145-.076-.1-.005.002c-.133-.179-.27-.354-.405-.53v-.002l-.328-.424-.002.002-.114-.15a21.96 21.96 0 00-.055-.069v-.001l-.099-.13c-.09-.116-.18-.232-.274-.35l.186.236c-.124-.162-.252-.32-.38-.48a50.788 50.788 0 00-.626-.785l.002-.002-.086-.108-.11-.136c-.13-.159-.263-.318-.395-.481h-.003c-.169-.21-.346-.421-.515-.624l.007-.004-.2-.242-.002.002-.421-.5-.002.002a27.09 27.09 0 00-.642-.743l.005-.004-.098-.115-.102-.12-.008.003c-.186-.22-.38-.43-.567-.65l.003-.002-.087-.1c-.1-.111-.2-.223-.296-.337l.007-.004-.114-.13-.113-.127-.445-.495-.012.005c-.211-.236-.423-.464-.634-.7l.007-.006-.079-.087a99.19 99.19 0 00-.13-.145l-.001.002-.376-.409-.005.004c-.21-.228-.422-.448-.634-.676l.004-.002-.123-.133a46.42 46.42 0 00-.096-.101h-.005c-.228-.236-.456-.48-.684-.717l.22.228-.435-.45-.005.002a43.044 43.044 0 00-.61-.624l.009-.006-.105-.108-.09-.093-.008.004c-.151-.156-.307-.31-.463-.464h-.002l-.71-.709.005-.003-.225-.224c-.228-.22-.456-.448-.685-.667l.001-.001-.073-.07c-.103-.1-.207-.199-.308-.3v-.002l-.127-.124a32.69 32.69 0 00-.109-.105l-.001.003c-.167-.156-.331-.315-.496-.473h-.003l-.702-.658.002-.001-.116-.109-.35-.329v-.001l-.098-.092-.146-.136-.002.001-.643-.582.005-.003-.148-.136-.117-.106h-.002a38.98 38.98 0 00-.475-.432l-.007.002a26.29 26.29 0 00-.727-.641l.009-.006-.247-.218-.007.004c-.208-.184-.416-.368-.63-.553l.182.157-.736-.633.003-.003-.11-.094-.14-.12-.007.006c-.245-.211-.49-.422-.744-.633l.008-.006-.126-.108c-.125-.105-.25-.21-.372-.316l-.25-.208-.012.005c-.237-.194-.474-.397-.72-.59l.012-.008-.134-.11-.122-.102c-.254-.211-.508-.414-.77-.625l.262.211c-.17-.14-.343-.278-.515-.414v.001l-.04-.033a55.605 55.605 0 01-.214-.17l.002-.002-.143-.116-.112-.09-.01.006c-.245-.194-.49-.397-.744-.59l.008-.006-.123-.096-.133-.104-.005.003c-.262-.203-.516-.405-.787-.608l.011-.006-.264-.205c-.175-.135-.354-.27-.532-.406l-.001.001c-.254-.194-.507-.388-.761-.574l.006-.004-.158-.121c-.12-.092-.241-.183-.364-.271l.002-.002-.163-.12-.108-.082-.001.001-.54-.398-.002.001c-.27-.202-.54-.396-.811-.599l.003-.002-.151-.112-.147-.108-.001.003c-.18-.133-.363-.261-.544-.392l-.006.004c-.245-.177-.499-.363-.753-.54l.007-.005-.159-.113-.117-.085h-.001c-.28-.194-.55-.388-.829-.582l.001-.001-.645-.45c-9.593-6.662-20.752-12.991-33.65-18.856l-1.254-.566c15.038 4.475 29.927 9.274 44.674 14.643l.007-.002c.38.135.752.278 1.133.413l-.003.001.168.063c.18.065.359.13.536.198l-.002.001.371.136.004-.002.713.265.005-.003 1.15.43-.002.001.19.07.18.068.004-.004c.25.09.5.185.748.28l.005-.001c.355.135.71.27 1.065.396l.009.009-.004.001.197.075.509.194-.006.002.25.095.142.052.011-.006c.372.144.744.279 1.116.422v.005l.185.07c.185.07.37.14.55.212h.01l-.012.005.375.143.008-.005 1.117.43-.014.008.153.06.115.043.016-.009c.38.143.753.295 1.133.439l-.007.003.196.077.169.066.006-.003.368.144h.004l-.001.001.363.142h.002l.368.143h.004l-.002.001.187.072c.185.073.368.147.55.223h.009l-.01.004.14.055.237.092.013-.008c.338.135.685.27 1.023.405h-.008l-.364-.143 1.091.43-.013.007.186.075.174.07.017-.008 1.15.456v.008h-.003l.134.055.554.223-.002.001.287.115.01-.006c.364.144.728.296 1.083.439l-.014.006.192.078.176.072.01-.004.355.143-.355-.143c.24.095.476.193.713.29l.005-.003c.364.152.736.304 1.1.447v.008h-.002l.154.064.223.09.005-.002c.321.135.651.27.973.405l-.005.002.364.152.004-.002c.355.152.719.296 1.074.448l-.005.002.216.09.202.084h.001l.35.147.006-.003.008.009.165.068.296.128.225.094.007-.003v.005l.136.058.116.048.002-.002.533.228.177.076.347.148.008-.004v.008l.178.076.164.07.005-.003.36.154.004-.002-.001.003.2.086.562.24-.005.002.153.066.208.09.007-.006c.347.152.702.296 1.049.448h-.009l-.01.005.133.058.107.046.016-.008c.355.152.702.304 1.057.456v.008h-.003l.206.089.558.24-.003.001.146.063c.186.082.373.164.559.248l.36.158.012-.006.667.296c.313.135.626.278.948.413l-.009.008-.006.003.172.078.163.072.018-.01c.372.161.736.33 1.1.49l.002.003.182.082c.177.078.352.156.525.236l.009.008-.008.004.16.072.499.228h.008l-.008.004.236.106.018-.008c.346.151.693.312 1.04.472h-.009l-.01.006.406.185.01-.005.335.153.003-.001-.002.001.188.087.163.074.007-.002.352.161h.003l-.001.001.153.07c.17.078.338.156.507.232l-.012.007.14.065.202.093.009-.005c.19.09.383.18.576.267l.007-.005c.364.169.727.338 1.082.506l-.001.001.145.068.195.092c.346.16.693.32 1.031.48l-.003.001.168.08.173.08c.296.135.592.278.888.414v.002l.34.16.007-.002c.355.169.719.337 1.074.506v.009h-.002l.175.084.512.245-.338-.16c.226.107.453.214.677.322v-.002c.329.16.659.312.98.473h-.003l.113.054.448.216.005.005.19.092.201.098.001-.001c.339.16.677.329 1.015.498h-.001l.17.084.163.08.006-.004c.33.16.651.32.981.48h-.008l-.005.002.124.062.22.109.008-.003.595.297.005-.002c.338.169.668.33 1.006.498l.009.008-.011.006.167.083.169.082.004-.002.324.163.006-.003v.006l.165.083.149.075.007-.003.339.169-.339-.17.645.323.007-.001c.312.16.625.312.938.472v.009l-.01.005.133.066.19.097.017-.008.99.506-.007.004.167.085.151.076.01-.005c.32.16.642.33.964.49l-.001.005.153.08c.152.077.304.155.456.236l-.013.006.191.1.138.07.014-.008c.33.17.651.338.981.507l-.007-.001.163.085.487.253-.005.002.158.083.158.082.01-.006.956.497v.009l-.008.003.139.073.452.236.008.009h-.001l.166.088.171.09.003-.001.482.254.276.149.196.104h.001l.002.001.036.02.281.147h.003l.076.042c.042.028.085.054.126.08l.383.243.006-.002c.28.173.553.347.825.526l-.19-.121c.262.169.524.337.778.498l-.001.007.143.094.142.094.003-.001.286.185h.002l-.001.001.149.096.142.093.006-.004c.287.186.575.38.862.565l-.008.009h-.002l.175.117.12.08.003-.003c.27.177.54.363.811.54h-.004l.18.122.374.258-.005.001.152.103.136.093.004-.003c.28.194.567.388.838.582l-.006.003.165.115.105.074.015-.006c.296.202.592.413.879.616v.008l-.004.002.093.066.368.261-.005.002.139.1.136.099.009-.007.82.591-.008.007.134.099c.134.099.267.198.398.3l-.01.005.17.125.146.109.007-.004.268.203h.003l-.001.002.081.061.19.144.009-.004.702.531h-.007l.132.101c.132.102.263.203.39.304v.003l.13.103c.13.103.26.206.386.308l-.005.002.169.133.096.076h.002l.31.246.003-.002v.004l.1.08.15.121.004-.002c.142.115.28.227.417.34l.006-.003c.253.211.507.422.76.625l-.008.008-.002.001.124.105.123.105.248.211h.006l-.004.002.151.128.106.09.125.107.163.137h.009l-.007.004.11.095.137.122.005-.001c.161.139.323.281.481.422l.08.07.166.15h-.002l.074.067.317.287h-.002l.12.108.119.109.008-.006.71.658h-.008l-.003.001.142.134.14.135c.155.149.314.298.47.45l.004-.003c.203.194.397.388.592.582h-.008l.155.152.292.296-.013.006.122.124.103.106.017-.009c.236.245.473.49.701.735l-.009.004.115.122.106.114.008-.004c.212.228.432.456.635.692l-.008-.001.066.073c.092.103.183.206.271.308v.002l.11.124.095.112.007-.002c.137.158.274.316.41.476l.004-.004c.22.262.431.515.643.777h-.009l-.004.001.093.117c.097.12.195.24.292.363l-.01.004.068.085.127.168.01-.004.116.152.132.173.049.066.007-.003c.203.27.397.532.592.802l-.013.006.075.103.1.14.007-.005.532.76v.008l-.001.001.092.134.081.122.006-.003c.152.227.296.455.44.675l-.009.008-.006.004.085.135.081.132.018-.01c.177.28.346.566.507.845h-.008l-.006.002.08.137c.076.133.15.266.222.4l-.004.002.07.125.075.136h.002l.103.192.041.077h.009l-.008.004.07.131.077.147.004-.003c.078.145.153.292.226.44l.003-.001c.119.23.228.462.334.697l-.038-.081c.135.278.262.565.38.843l-.002.001.06.139.064.15.005-.003c.077.186.154.372.228.559v-.002c.102.253.195.507.288.76v.008l-.003.001.086.24c.05.139.099.278.145.417l-.003.002.04.117.063.188.002-.003c.067.203.127.405.185.608l.064.23.02.066h.001v.005l.04.138.045.164.008-.004c.056.202.109.407.157.611l.004-.003c.076.295.144.59.203.886l-.005-.001.03.137.102.513-.009-.008-.059-.33c.04.217.08.432.117.65h.001c.04.216.072.434.104.654l.006-.004c.051.33.093.65.127.98h-.008l-.006.002.013.111.023.22.003-.005c.034.321.06.642.077.962v.009l-.005.001.01.172.01.184.001-.003.02.52.001.174.005-.002c.008.355.008.7 0 1.055l-.005.002-.001.184c-.005.177-.011.354-.02.531v-.008l-.005.002-.005.154-.008.155.01-.007c-.017.37-.042.742-.076 1.114l-.005-.001v.011c-.023.25-.051.501-.08.749l-.019.011-.02.179-.023.194.02-.013c-.05.388-.101.768-.169 1.156v.009l-.012.006-.001.01c-.02.124-.042.246-.064.37l.01-.006-.089.468.004.004-.005.002-.017.095-.031.158.002-.002c-.076.405-.17.81-.262 1.224-.035.14-.068.281-.102.422a36.72 36.72 0 01-.21.818h-.001c-.076.281-.155.565-.237.85l.009-.006c-.119.405-.246.81-.372 1.215h-.009l-.005.003-.093.285c-.065.196-.13.392-.198.59l-.009.005c-.05.146-.102.293-.154.44l.011-.006c-.16.447-.33.894-.507 1.35-.067.157-.129.31-.192.463l.014-.007c-.194.48-.397.97-.609 1.46l-.018.009-.068.16a55.68 55.68 0 01-.078.176l.029-.016c-.211.472-.431.953-.66 1.434h-.004c-.111.236-.225.47-.341.705l-.261.533-.372.74-.005.003-.009.017c-.097.19-.196.379-.295.57l.002-.002-.146.277-.108.204h-.002l-.1.19-.184.345.007-.004c-.245.456-.507.92-.77 1.384l-.02.013-.293.511.018-.009-.463.797-.163.275-.108.182a79.62 79.62 0 01-.205.34l-.002.002-.026.044c-.23.38-.462.765-.699 1.153l-.015.01c-.22.354-.445.71-.67 1.07-.203.315-.406.626-.609.937v.008l-.014.009-.373.57.024-.013c-.372.565-.753 1.139-1.15 1.721l-.006.003-.016.025-.384.56.008-.005c-.29.423-.589.85-.89 1.28l.011-.006c-.254.363-.516.734-.778 1.105l-.431.532h-.009l-.023.012-.337.418-.186.226.014-.006-.818 1-.273.333-.084.101-.474.574-.008.004-.277.334-.297.354.015-.008-.567.671v.004l-.005.002-.342.407-.92 1.084v-.008l-.016.008-.278.325-.348.406.007-.005-.539.624h.006l-.012.007-.248.288-.382.435.034-.02c-.356.408-.716.816-1.076 1.224l.002-.001-.191.215-.452.51-.001-.003-.321.362-.972 1.085h-.008l.65-.726c-.478.536-.957 1.069-1.442 1.6l.022-.014c-.702.768-1.403 1.536-2.114 2.296v-.008l-.28.303c-.348.371-.696.743-1.047 1.114l.718-.768c-.66.709-1.327 1.418-2.004 2.118l-.012.007-.374.394-.385.4.027-.016c-.51.53-1.026 1.06-1.545 1.59l.006-.004c-.563.58-1.133 1.158-1.706 1.734l.007-.004c-.577.582-1.158 1.164-1.744 1.746l.01-.007c-.744.742-1.496 1.476-2.257 2.21l-.023.012-.538.524-.34.329.004-.004c-.955.929-1.928 1.848-2.9 2.768l-.021.011-.417.394-.55.516.015-.01-.733.681-.247.231-.003-.001-.583.541-.558.513.027-.015c-.98.903-1.97 1.797-2.968 2.692v-.009l-.033.02c-.295.264-.59.528-.888.791l.017-.009a307.568 307.568 0 01-3.467 3.046l-.011.005-.052.046c-.838.726-1.682 1.452-2.533 2.177l-.043.024-.047.041c-.465.395-.931.788-1.399 1.182l.026-.015a342.324 342.324 0 01-4.135 3.426l-.033.02-1.148.933.073-.041c-1.471 1.19-2.96 2.38-4.465 3.56h-.008l-.035.02-.07.056c-1.15.905-2.308 1.807-3.48 2.701h.008l-.056.032-.121.094c-.587.45-1.177.9-1.768 1.35l.102-.058a347.84 347.84 0 01-5.8 4.318l1.487-1.095c-.728.54-1.46 1.077-2.195 1.613h.005l-.029.017a419.604 419.604 0 01-4.046 2.91l-.099.056-.493.353c-.72.508-1.44 1.016-2.164 1.522l.1-.057a436.844 436.844 0 01-5.93 4.08l.096-.055a460.756 460.756 0 01-14.739 9.57l-.17.099a509.112 509.112 0 01-9.35 5.687c-.132.083-.265.165-.399.247-11.297 6.734-23.143 13.063-35.396 19.105-5.343 2.302-10.307 4.204-14.92 5.719l-.19.062-.73.236-.015.008.004-.004c-.498.16-.99.317-1.475.468l.017-.019-.096.031-.789.238-.012.004-.008.008c-.25.075-.5.149-.747.221l-.005.007c-.242.066-.477.135-.713.203l-.006.008c-.507.146-1.011.285-1.51.419l-.737.193-.717.185-.004.004c-.648.168-1.28.32-1.911.465l.566-.135c-.5.121-.995.235-1.487.344v.002c-.669.143-1.32.286-1.971.413l.005-.006-.045.01-.57.107-.007.007c-.685.127-1.37.253-2.038.355h-.009l.002-.003-.05.008c-.44.07-.876.135-1.305.197-.189.023-.38.049-.572.073l-.029.003-.007.009c-.6.075-1.193.143-1.776.202l.007-.009-.349.037-.36.031-.012.003-.555.048.003-.005c-.2.017-.392.03-.583.042l-.003.005a62.806 62.806 0 01-2.858.11l.01-.013-.271.003h-.263v.001l-.066-.001-.459.001.004-.005h-.04a55.007 55.007 0 01-.605-.014l-.001.002-.222-.008-.277-.009h-.009l.003-.003-.263-.01a98.043 98.043 0 01-.248-.012h.001l-.136-.007-.371-.018.002-.004-.033-.001c-.15-.01-.298-.021-.447-.033l-.004.004a45.174 45.174 0 01-1.573-.152l-.006-.005-.23-.026-.235-.03-.003.002a43.031 43.031 0 01-1.505-.228v-.008l.003-.004-.23-.04-.226-.043-.003.002a37.774 37.774 0 01-.87-.178l-.001.001a23.228 23.228 0 01-.558-.126c-.283-.068-.565-.14-.846-.211l-.009-.009.001-.001a23.27 23.27 0 01-.426-.115l-.006.007a22.346 22.346 0 01-1.336-.414l-.387-.136-.002.001-.227-.082-.17-.061h-.009l.003-.004-.237-.086-.628-.24-.009-.008.001-.001-.156-.06-.618-.258.009-.01-.199-.085-.181-.083-.006.008c-.28-.128-.555-.256-.827-.39l-.001.001c-.242-.117-.48-.239-.717-.364l-.002.002a32.455 32.455 0 01-.7-.383l-.002.003c-.372-.211-.744-.43-1.116-.658v-.009l.003-.005-.167-.102a25.771 25.771 0 01-.16-.103l-.006.008a29.7 29.7 0 01-.734-.49h-.001l-.121-.084-.21-.144.001-.001-.152-.106a34.45 34.45 0 01-.482-.348v-.009l.003-.005-.012-.008c-.224-.17-.448-.344-.668-.518l-.008-.009-.306-.252-.007.007a35.479 35.479 0 01-.888-.759v-.002l-.023-.02c-.113-.1-.225-.2-.337-.302l-.004.003a25.282 25.282 0 01-.854-.801l.004-.005-.176-.17a30.7 30.7 0 01-.104-.104h-.003a45.208 45.208 0 01-.606-.617l-.003.001-.212-.225a47.224 47.224 0 01-.067-.07l.002-.001-.123-.131-.394-.434v-.008l.005-.007-.17-.188a55.82 55.82 0 01-.155-.178l-.01.01c-.254-.295-.516-.59-.761-.903l.004-.006-.02-.024c-.076-.092-.15-.185-.225-.278l-.005.004a32.36 32.36 0 01-.794-1.012v-.009l.005-.007-.115-.154-.355-.48v-.002l-.017-.024a32.71 32.71 0 01-.268-.373l-.003.002-.228-.325-.009-.012-.22-.321-.006-.01-.002.002c-.152-.22-.3-.443-.448-.667l-.128-.195a238.64 238.64 0 01-.143-.218l-.203-.318-.234-.37.01-.011-.104-.167-.106-.171-.005.007c-.16-.26-.32-.525-.48-.794h-.002l-.15-.255-.053-.09v-.002l-.084-.143-.122-.217-.006.007c-.203-.354-.406-.717-.609-1.08h.007l-.077-.14c-.107-.197-.213-.396-.319-.594h.009v-.001l-.097-.181a87.785 87.785 0 01-.292-.552l.004-.007-.118-.23a65.334 65.334 0 01-.309-.607l.004-.004-.088-.178-.099-.2-.003.002-.135-.285-.042-.086v-.001l-.115-.24-.068-.144-.003.005-.402-.856-.004.004c-.178-.38-.347-.768-.525-1.165l.004-.004-.212-.481-.003.004c-.17-.388-.338-.793-.507-1.19l.006-.008-.104-.25-.059-.144-.004.006a68.752 68.752 0 01-.37-.914l-.01.011c-.161-.397-.322-.802-.483-1.207h.009l.007-.008-.092-.237-.098-.256-.003.003c-.11-.276-.215-.556-.32-.837l-.001.002-.149-.402-.004-.003.002-.003-.095-.255-.092-.25v.002a80.283 80.283 0 01-.305-.836c-.16-.447-.313-.894-.474-1.35v-.005l-.059-.169-.086-.252-.007.004c-.144-.422-.287-.852-.431-1.283l-.085-.254-.228-.69h.009l.003-.005-.07-.216c-.069-.216-.136-.434-.204-.649v-.001l-.085-.266-.054-.17-.005.007c-.144-.464-.287-.937-.44-1.41l.006.006-.064-.205a39.25 39.25 0 01-.195-.653l.005-.006-.081-.272-.077-.26-.008.007c-.085-.295-.174-.59-.262-.887l-.06-.208a36.439 36.439 0 01-.067-.23l.001-.002-.126-.44-.002.003c-.135-.473-.27-.954-.406-1.435l.003-.003-.062-.217-.062-.223-.005.005c-.136-.481-.263-.962-.398-1.452l.005-.005-.06-.22-.18-.672.005-.006-.07-.263-.048-.183-.007.007-.144-.548.144.548c-.088-.34-.176-.676-.267-1.014l-.004.002a93.74 93.74 0 01-.234-.897l-.002.002c-.127-.49-.254-.979-.372-1.468v-.009l.008-.01-.055-.218-.057-.227-.006.008c-.092-.371-.188-.748-.282-1.13l.053.21-.265-1.06-.014-.045-.304-1.283v-.008l.001-.003-.069-.288-.177-.747.003-.005-.05-.211-.165-.704.001-.001-.064-.277-.043-.188-.004.002c-.118-.498-.228-1.004-.346-1.502l.005-.008-.052-.233-.052-.228-.003.005c-.11-.507-.228-1.004-.338-1.51l.001-.003-.102-.463v.001c-.11-.498-.22-.996-.33-1.502l.002-.005-.04-.19-.067-.308-.014.014a82.584 82.584 0 01-.296-1.401l.002-.001-.064-.299-.056-.267v.001c-.101-.48-.203-.953-.296-1.434l.004-.006-.059-.285c-.053-.251-.106-.502-.156-.756l.001-.002-.04-.196-.061-.302-.002.003-.192-.949-.002.003-.305-1.544.005-.005-.043-.223-.05-.26-.005.007-.093-.472.093.472c-.064-.318-.127-.64-.19-.961l-.004.008c-.102-.524-.203-1.038-.296-1.562l.008.009.002-.003-.044-.233-.135-.718.003-.004-.057-.307-.05-.272-.006.01-.185-1-.001.004-.175-.965-.003.003-.194-1.099v.002l-.254-1.452.005-.006-.051-.294-.14-.797.003-.004-.037-.218-.046-.274-.005.007-.08-.477-.004-.004.003-.005-.05-.295-.034-.202-.004.004-.134-.798-.049-.304-.003.005c-.084-.49-.16-.979-.245-1.468l.006-.001-.05-.309-.046-.282H5.64c-.084-.497-.16-1.003-.237-1.501l.005-.007-.046-.29a59.305 59.305 0 01-.12-.792h-.008l.007-.008-.031-.207a83.32 83.32 0 01-.05-.329l-.01.013-.229-1.486.009.009v-.002l-.047-.31c-.04-.27-.08-.54-.122-.81l.005-.007-.075-.5-.006.009-.158-1.102-.003.005c-.076-.515-.144-1.022-.22-1.536h.008l.005-.006-.041-.294a91.52 91.52 0 01-.029-.203l-.002.005-.084-.6.084.6-.228-1.637.007-.01-.029-.214-.04-.284-.006.01c-.076-.54-.144-1.072-.212-1.612l.001-.001-.034-.269-.038-.285-.005.007-.128-1.021-.007.008-.211-1.654h.008l.007-.009-.028-.226-.034-.277-.004.006-.203-1.663v-.008l.002-.003-.06-.506-.001.002a88.595 88.595 0 01-.12-1.028l-.007.007c-.068-.557-.127-1.114-.194-1.679h.008l.007-.009-.027-.248-.03-.268v.002l-.057-.512-.003-.003.002-.002-.036-.327-.031-.282-.003.004c-.059-.532-.11-1.064-.169-1.595l.003-.004-.031-.297a87.912 87.912 0 01-.022-.215c-.06-.564-.119-1.13-.17-1.695v-.009l.051.532-.102-1.055-.008.009c-.059-.566-.11-1.14-.16-1.705l.005-.008-.049-.525-.007.01-.097-1.062-.005.007-.152-1.722h.006l-.023-.27-.067-.786.006-.007-.028-.33-.071-.861.002-.002-.02-.245-.024-.296-.01.013c-.041-.566-.092-1.123-.134-1.688l.003-.001-.017-.247c-.022-.29-.046-.579-.071-.866h.008l.011-.012-.019-.258-.02-.286-.014.016-.062-.874-.056-.873v-.001.001-.008l.042.599c-.029-.38-.054-.759-.08-1.136l-.004.005c-.043-.574-.077-1.14-.11-1.705l.008-.01-.016-.238-.021-.357-.014.015c-.034-.54-.067-1.089-.093-1.629l.003-.003-.036-.631-.009.01c-.034-.566-.06-1.131-.093-1.688l.012-.013-.016-.309c-.015-.288-.03-.577-.047-.868l.002-.002-.013-.268-.016-.337-.007.008-.076-1.646v-.008l.002-.003-.014-.347-.013-.292c-.025-.573-.05-1.147-.068-1.712H.313l.011-.014-.011-.303-.01-.258-.015.018-.068-1.815h.008l.008-.009-.008-.26-.009-.296-.008.008-.015-.555-.002-.002.002-.002-.01-.352-.025-.911.006-.009-.006-.24-.01-.333-.016.016-.042-1.772h.001l-.005-.273-.008-.356-.005.005c-.008-.566-.025-1.131-.034-1.705h.009v-.001l-.017-1.282v-.008l.007-.01-.003-.23-.013-.89v-.01l.003-.003-.003-.321-.001-.256-.007.007c-.009-.625-.009-1.249-.009-1.873l.005-.007-.002-.571-.011.012v-1.89l.001-.001v-.256c.001-.302.003-.604.007-.908l.003-.003.002-.334.001-.25-.006.005c.009-.633.009-1.274.017-1.907h.009l.008-.011.005-.28.004-.291.007-.583-.007-.008.008-.01.005-.361.006-.308-.01.012.022-1.273-.006.008c.017-.625.025-1.24.042-1.857h.009l.007-.009.01-.327.009-.342-.01.011.018-.599-.017.6c.017-.625.034-1.25.059-1.874l.013-.015.01-.283.01-.322-.016.02.076-1.89.007-.009.014-.34.014-.338-.01.013c.026-.642.06-1.275.085-1.908l.012-.013.017-.344c.005-.093.01-.185.013-.278l-.008.011c.034-.667.067-1.342.11-2l.005-.008.016-.262c.019-.323.038-.646.055-.97l.001-.003.02-.35.023-.352-.01.013.126-1.958h.009l.001-.003.024-.347.02-.286-.003.003.038-.502.013-.19v-.003l.054-.728-.003.005c.042-.616.093-1.223.143-1.831l.013-.015.035-.419.023-.27-.003.004.064-.738-.005-.005.006-.007.024-.262.034-.389-.013.017c.06-.667.118-1.342.186-2l.009-.012.033-.338.04-.406-.006.005.06-.574.008-.085v.009l-.068.65.137-1.32-.01.012.228-2.144.009.009v-.002l.03-.276c.04-.347.08-.693.122-1.039v-.008l.001-.003.042-.364.037-.304-.004.004c.085-.734.178-1.46.27-2.185v.008l.012-.013.04-.316.046-.352-.004.006.089-.671-.005-.004.006-.008.059-.43.046-.344-.018.022c.102-.725.203-1.451.305-2.168l.008.008.007-.008.056-.38c.053-.355.106-.709.157-1.063l.004-.006.056-.373.067-.433v.002c.11-.71.22-1.41.338-2.11l.101-.574.044-.222-.01.011c.11-.545.219-1.086.33-1.623v.003l.04-.193.12-.567h.003l.009-.039c.054-.247.11-.493.165-.738l-.007.01a96.5 96.5 0 01.626-2.583l.008.009-.203.801c.203-.827.423-1.645.643-2.447h.008l-.228.836c.238-.888.484-1.754.744-2.597l.03-.098.02-.065v-.008c.19-.607.381-1.202.576-1.79h-.009l.017-.018.014-.04c.101-.303.204-.602.308-.9l-.026.03c.262-.75.532-1.486.812-2.206v.004l.038-.102.145-.365-.183.467a54.077 54.077 0 011.37-3.24l.01-.013c.199-.438.402-.869.61-1.293l-.011.014a47.227 47.227 0 012.494-4.489h.008l.012-.013a41.49 41.49 0 011.543-2.276l-.016.02c1.407-1.934 2.923-3.656 4.56-5.167l.079-.072a32.796 32.796 0 01.634-.568 30.484 30.484 0 011.937-1.557l.012-.012a29.172 29.172 0 012.626-1.737l.004-.002.23-.134.26-.147-.49.281c.681-.402 1.38-.775 2.091-1.12l.006-.002.188-.09.221-.104-.41.194a30.37 30.37 0 012.58-1.105l-.012.01c.57-.213 1.15-.409 1.737-.593.23-.066.466-.136.703-.203l.007-.008a30.717 30.717 0 012.19-.54c.42-.083.854-.167 1.294-.244.402-.067.812-.13 1.226-.186l-.071.074.093-.018c.429-.083.863-.152 1.297-.216l-.082.122a8.3 8.3 0 01.226-.038l.001.002.02-.002.131-.025.026-.005.168-.03.215-.044c.145-.029.29-.056.437-.082l-.02.054c.134-.01.268-.017.403-.025l-.164.013c.185-.018.37-.032.555-.045L38.71.093c.13-.01.258-.022.389-.034l.085-.017c.07.003.144-.003.22-.008l-.001.005.153-.015.094-.007.05-.009-.022.009h.021l.087-.002h.063c.04 0 .08-.003.12-.007l.002.004.168-.003h.169l.588-.001L40.893 0z"/></g></g></svg>