<?xml version="1.0" standalone="no"?>
<!DOCTYPE svg PUBLIC "-//W3C//DTD SVG 20010904//EN"
 "http://www.w3.org/TR/2001/REC-SVG-20010904/DTD/svg10.dtd">
<svg version="1.0" xmlns="http://www.w3.org/2000/svg"
 width="700.000000pt" height="700.000000pt" viewBox="0 0 700.000000 700.000000"
 preserveAspectRatio="xMidYMid meet">
<metadata>
Created by potrace 1.14, written by Peter Selinger 2001-2017
</metadata>
<g transform="translate(0.000000,700.000000) scale(0.100000,-0.100000)"
fill="#000000" stroke="none">
<path d="M1925 6303 c-281 -22 -422 -59 -607 -155 -305 -160 -515 -447 -587
-804 -40 -199 -43 -319 -38 -1949 4 -1689 2 -1611 58 -1830 27 -109 123 -303
197 -401 174 -230 428 -383 728 -438 190 -35 314 -37 1914 -34 1727 4 1652 2
1867 64 392 113 697 431 798 829 54 211 55 256 55 1907 0 1520 -2 1643 -36
1828 -75 419 -340 743 -733 895 -101 39 -259 71 -421 85 -103 9 -3088 12
-3195 3z m745 -1114 c78 -12 340 -81 425 -111 213 -76 456 -238 635 -424 150
-156 242 -308 282 -466 37 -148 16 -310 -56 -418 -54 -83 -182 -133 -279 -111
-134 31 -174 136 -126 324 17 66 20 102 17 184 -4 94 -8 109 -43 180 -28 56
-59 98 -118 157 -45 46 -68 65 -53 43 77 -107 89 -202 39 -308 -34 -72 -63
-113 -204 -280 -124 -150 -190 -247 -250 -373 -68 -145 -90 -233 -96 -402 -5
-121 -3 -151 16 -224 34 -133 83 -222 176 -316 135 -137 244 -183 445 -191
111 -4 136 -2 224 21 368 95 683 410 800 798 36 121 48 199 49 323 5 519 -354
989 -1005 1320 -75 38 -136 71 -134 73 8 8 647 -212 833 -287 512 -205 775
-352 937 -522 165 -172 186 -330 75 -551 -84 -167 -187 -294 -430 -534 -334
-327 -719 -610 -1199 -881 -302 -170 -523 -265 -708 -303 -444 -90 -631 115
-787 862 -82 393 -116 701 -122 1113 -11 664 55 1001 230 1179 113 114 249
154 427 125z"/>
</g>
</svg>
