<svg xmlns="http://www.w3.org/2000/svg" xmlns:xlink="http://www.w3.org/1999/xlink" width="36" height="36" viewBox="0 0 80 80"><path d="M40 0C17.947 0 0 17.947 0 40s17.947 40 40 40 40-17.947 40-40S62.053 0 40 0Zm33.845 40c0 18.659-15.186 33.845-33.845 33.845S6.155 58.66 6.155 40 21.34 6.155 40 6.155 73.845 21.34 73.845 40Z" fill="url(#a)"/><path d="M56.494 36.068h-.01a2.43 2.43 0 0 0-2.429 2.42l-.01 2.994a2.429 2.429 0 0 0 2.42 2.438h.01a2.427 2.427 0 0 0 2.428-2.419l.01-2.994c.01-1.337-1.083-2.429-2.42-2.439Z" fill="url(#b)"/><path d="M47.745 27.855h-.01a2.427 2.427 0 0 0-2.429 2.42l-.088 19.429a2.429 2.429 0 0 0 2.42 2.438h.009a2.43 2.43 0 0 0 2.429-2.419l.087-19.43c0-.643-.243-1.257-.702-1.716a2.414 2.414 0 0 0-1.716-.722Z" fill="url(#c)"/><path d="M39.005 19.877h-.01a2.427 2.427 0 0 0-2.428 2.419L36.4 57.682c0 .644.244 1.259.702 1.717a2.414 2.414 0 0 0 1.717.722h.01a2.427 2.427 0 0 0 2.428-2.42l.166-35.395a2.42 2.42 0 0 0-2.419-2.429Z" fill="url(#d)"/><path d="M31.3 19.605a3.238 3.238 0 0 0-2.966-.38 10.999 10.999 0 0 0-3.881 2.418 10.797 10.797 0 0 0-3.229 7.793 10.8 10.8 0 0 0 3.316 7.755l2.575 2.496a.354.354 0 0 1 .117.274.369.369 0 0 1-.117.273l-2.536 2.419a11.227 11.227 0 0 0-3.472 8.085c0 2.926 1.131 5.628 3.2 7.608a11.309 11.309 0 0 0 3.881 2.429c.361.137.741.205 1.122.205.644 0 1.278-.195 1.824-.566a3.148 3.148 0 0 0 1.365-2.585l.166-35.6c-.02-1.064-.507-2.02-1.365-2.624Z" fill="url(#e)"/><defs><linearGradient id="a" x1="40" y1="79.996" x2="40" y2=".004" gradientUnits="userSpaceOnUse"><stop stop-color="#E13F8C"/><stop offset=".503" stop-color="#9D2AD5"/><stop offset="1" stop-color="#27AAE1"/></linearGradient><linearGradient id="b" x1="56.474" y1="79.979" x2="56.474" y2="-.006" gradientUnits="userSpaceOnUse"><stop stop-color="#E13F8C"/><stop offset=".503" stop-color="#9D2AD5"/><stop offset="1" stop-color="#27AAE1"/></linearGradient><linearGradient id="c" x1="47.692" y1="79.979" x2="47.692" y2="-.006" gradientUnits="userSpaceOnUse"><stop stop-color="#E13F8C"/><stop offset=".503" stop-color="#9D2AD5"/><stop offset="1" stop-color="#27AAE1"/></linearGradient><linearGradient id="d" x1="38.91" y1="79.979" x2="38.91" y2="-.006" gradientUnits="userSpaceOnUse"><stop stop-color="#E13F8C"/><stop offset=".503" stop-color="#9D2AD5"/><stop offset="1" stop-color="#27AAE1"/></linearGradient><linearGradient id="e" x1="26.865" y1="79.98" x2="26.865" y2="-.005" gradientUnits="userSpaceOnUse"><stop stop-color="#E13F8C"/><stop offset=".503" stop-color="#9D2AD5"/><stop offset="1" stop-color="#27AAE1"/></linearGradient></defs></svg>