<svg width="36" height="36" viewBox="0 0 80 80" xmlns="http://www.w3.org/2000/svg"><circle cx="40" cy="40" r="40" fill="url(#paint0_linear_audius-icon-circle-z4z76dp48x9)"/><path d="M39.689 13.982c-.2.056-.37.155-.526.31-.13.13-.21.253-.563.867-.226.392-1.787 3.097-3.47 6.007l-4.487 7.761-3.604 6.239c-1.2 2.073-2.357 4.075-2.57 4.446a877.43 877.43 0 01-1.374 2.376c-.632 1.09-1.003 1.757-1.038 1.86a1.264 1.264 0 00-.007.73c.09.283.312.553.572.694.256.14-.067.131 5.182.134 4.765.002 4.8.002 4.952-.044.191-.06.394-.192.528-.342.058-.064.268-.399.47-.747.686-1.18 2.738-4.73 3.884-6.709 1.421-2.456 1.368-2.366 1.472-2.488.468-.545 1.42-.492 1.831.101.152.221 6.008 10.41 6.047 10.526.23.653-.191 1.393-.879 1.538-.129.026-1.026.033-5.698.033-6 0-5.662-.007-5.911.117a1.229 1.229 0 00-.425.362c-.175.252-4.746 8.18-4.788 8.308-.145.424-.016.929.316 1.24.166.155.374.266.568.3.085.016 5.6.03 16.94.04 15.168.013 16.83.01 16.97-.021.301-.072.548-.24.712-.492a1.53 1.53 0 00.143-.26 1.314 1.314 0 00-.005-.826c-.025-.062-.623-1.12-1.33-2.348a7549.7 7549.7 0 01-2.157-3.745c-2.835-4.924-3.026-5.258-12.754-22.138-6.796-11.792-7.73-13.4-7.843-13.515a1.231 1.231 0 00-.54-.314 1.55 1.55 0 00-.618 0z" fill="#fff"/><defs><linearGradient id="paint0_linear_audius-icon-circle-z4z76dp48x9" x1="12" y1="11" x2="73" y2="63.5" gradientUnits="userSpaceOnUse"><stop stop-color="#6B08C1"/><stop offset="1" stop-color="#9D10B5"/></linearGradient></defs></svg>
