<svg xmlns="http://www.w3.org/2000/svg" xmlns:xlink="http://www.w3.org/1999/xlink" width="36" height="36" viewBox="0 0 101 101"><circle cx="50.5" cy="50.5" r="50.5" fill="black"></circle><path d="M15.9926 48.1709C15.9926 48.1709 17.6204 47.9017 18.2872 48.6092C18.9571 49.3167 18.5188 50.7785 17.6298 50.8005C16.7408 50.8286 15.9175 50.9945 15.3352 50.3653C15.1843 50.1934 15.0796 49.986 15.0309 49.7624C14.9822 49.5389 14.9912 49.3067 15.0569 49.0876C15.1226 48.8685 15.243 48.6697 15.4067 48.5099C15.5704 48.3501 15.772 48.2345 15.9926 48.1741V48.1709ZM33.6354 58.16C33.4789 58.1725 33.313 58.1005 33.1439 57.9784C31.9794 56.3381 31.5568 50.7253 31.0215 50.3904C30.4675 50.0429 28.4609 53.4988 24.4634 53.1295C22.7949 52.9729 21.0951 51.8773 20.0934 51.1198C20.1873 49.8457 20.203 46.8656 22.6916 47.8329C24.2004 48.4245 26.7924 50.0398 29.065 47.1379C31.5787 43.9293 32.9624 44.8621 33.795 45.5602C34.6246 46.2552 34.0736 49.8833 35.3133 48.869C36.5529 47.8548 41.5584 41.5596 41.5584 41.5596C41.5584 41.5596 45.4338 37.6091 46.0285 41.7631C46.6233 45.9171 49.1464 50.5187 49.8163 50.3873C50.4893 50.2558 58.284 34.2408 59.4015 33.2046C60.519 32.1716 64.2755 32.3093 64.0971 34.9576C63.9186 37.6091 63.5336 54.0874 63.5336 54.0874C63.5336 54.0874 63.0953 58.7328 63.8153 56.2504C64.1127 55.2205 64.432 54.294 64.8327 53.2108C66.7548 46.9814 70.0323 36.3444 71.6663 30.8631L72.6148 27.5606C72.697 27.2222 72.7952 26.8879 72.9091 26.5588C73.0437 26.0893 73.1376 25.7856 73.1658 25.7042C73.2378 25.4976 73.4444 25.3411 73.7292 25.2284C74.0203 25.0437 74.3303 25.0343 74.6809 25.025C75.5887 24.9436 76.7532 25.0625 77.8018 25.363C78.1459 25.3796 78.4773 25.4984 78.7535 25.7042L78.7973 25.7356L78.8192 25.7481C78.9294 25.8308 79.0284 25.9277 79.1135 26.0361L79.126 26.0486C79.1761 26.1112 79.2293 26.1895 79.2825 26.274C79.8648 27.1411 80.2248 28.7407 79.8648 31.58C78.9663 38.6609 78.2683 53.2296 78.2683 53.2296C78.2683 53.2296 78.1337 53.9277 79.5768 50.8599C79.6268 50.7535 79.6926 50.6596 79.7489 50.5626C79.8534 50.4904 79.9463 50.4028 80.0244 50.3027C80.9166 49.229 83.3144 48.5967 84.9767 48.6123C85.6779 48.6968 86.2664 48.8753 86.617 49.0975C87.2744 50.1086 86.8862 53.8338 86.8862 53.8338C85.5026 53.9653 82.8637 54.7166 81.9308 54.8543C80.9917 54.9952 79.5736 61.1338 77.6015 60.5046C75.6262 59.8785 71.2249 57.0863 71.2249 56.7043C71.2249 56.3694 71.5693 52.2905 71.6632 51.2418L71.6788 51.0321L71.682 50.9914C71.7446 50.165 71.6914 49.8019 71.3126 50.6283C70.987 51.3389 69.569 55.8936 67.9881 60.8521C67.8222 61.2841 64.8358 70.4216 64.4414 71.5361C63.9718 72.8258 63.5806 73.815 63.3113 74.3284C62.8981 74.8918 62.3409 75.2487 61.5615 75.0108C59.6206 74.416 57.1664 71.7082 57.1445 71.0352C57.0975 67.2474 57.3261 46.8593 56.4151 48.5591C55.4823 50.2996 48.2261 62.3891 48.2261 62.3891C48.104 62.4079 48.0163 62.4048 47.9068 62.4141C47.3934 62.3578 46.5983 62.1888 46.3791 61.6942C46.3666 61.6629 46.3478 61.6347 46.3384 61.6065C46.3244 61.5649 46.3108 61.5232 46.2978 61.4813C46.2007 61.1495 46.16 60.7895 46.0724 60.4921C45.7499 59.3871 45.2272 57.8 44.6825 56.1847C43.8498 53.43 42.9889 50.6126 42.845 50.3027C42.5695 49.6954 42.1657 49.9521 41.8025 50.3027C40.1841 51.6926 36.7439 57.8219 33.6354 58.16" fill="#FFA200"></path></svg>