<svg xmlns:xlink="http://www.w3.org/1999/xlink" xmlns="http://www.w3.org/2000/svg" width="36" height="36" viewBox="0 0 65 65"><path fill-rule="evenodd" clip-rule="evenodd" d="M32.5 65C50.4492 65 65 50.4492 65 32.5 65 14.5508 50.4492 0 32.5 0 14.5508 0 0 14.5508 0 32.5 0 50.4492 14.5508 65 32.5 65Zm-5.2131-23.6592H5.72791l8.38599-18.1797h21.5592l-8.3862 18.1797Zm8.3862-18.1797 2.1576-.0005v6.4131h.0495c.9318-1.351 2.2065-1.9653 3.7028-1.9902 3.4085 0 5.3452 2.8018 5.3455 6.4136 0 3.0703-1.2751 7.1733-5.6402 7.1733-2.182 0-3.0893-1.2524-3.5307-1.9648h-.0487v1.5971h-2.036l.0002-17.6416Zm5.5662 16.1431c-1.3726 0-3.5061-.9097-3.5061-4.3247 0-2.0889.3426-5.4546 3.4572-5.4546 3.3349 0 3.5065 3.1699 3.5065 4.8159 0 2.8247-1.1035 4.9634-3.4576 4.9634Zm15.9488-7.0278c-.2693-1.7198-1.2267-2.7515-3.0412-2.7515-2.6717 0-3.53 2.5547-3.5302 4.8403 0 2.2115.54 4.939 3.507 4.939 1.4462 0 2.6961-1.0815 3.0644-3.0474h2.0839c-.2199 2.0391-1.4711 4.9136-5.2227 4.9136-3.6042 0-5.7374-2.7261-5.7374-6.4375 0-3.9795 1.912-7.1494 6.1539-7.1494 3.3596 0 4.6347 2.4575 4.8062 4.6929h-2.0839Z" fill="#65929A"/></svg>