<svg xmlns="http://www.w3.org/2000/svg" xmlns:xlink="http://www.w3.org/1999/xlink" width="36" height="36" viewBox="0 0 101 101"><circle cx="50.5" cy="50.5" r="50.5" fill="#122130"/><path d="M51.429 26C36.27 26 24 38.267 24 53.429v5.142a3.43 3.43 0 0 0 1.895 3.067l1.541.77C27.652 68.847 32.938 74 39.43 74H42a2.571 2.571 0 0 0 2.571-2.571V52.57A2.571 2.571 0 0 0 42 50h-2.571c-3.358 0-6.394 1.38-8.572 3.603v-.174c0-11.343 9.229-20.572 20.572-20.572S72 42.086 72 53.43v.174A11.963 11.963 0 0 0 63.429 50h-2.572a2.571 2.571 0 0 0-2.571 2.571V71.43A2.571 2.571 0 0 0 60.857 74h2.572c6.49 0 11.776-5.153 11.992-11.592l1.54-.77a3.43 3.43 0 0 0 1.896-3.067V53.43C78.857 38.27 66.59 26 51.43 26Z" fill="#fff"/></svg>